# xmcd CD database file
#
# Track frame offsets:
#	150
#	21356
#	53088
#	77712
#	105391
#	130877
#	155837
#	182986
#	207911
#	236649
#	265518
#	293338
#	318622
#
# Disc length: 4394 seconds
#
# Revision: 0
# Processed by: cddbd v1.5.2PL0 Copyright (c) Steve Scherf et al.
# Submitted via: CDex 1.51
#
DISCID=b111280d
DTITLE=Threeway - Looking Forward, Looking Back
DYEAR=2013
DGENRE=Jazz
TTITLE0=The Corridor of Uncertainty
TTITLE1=Song for Dorothy
TTITLE2=Soul Sample
TTITLE3=Destination Unknown
TTITLE4=CQD
TTITLE5=Blues for Jeff
TTITLE6=Modest Earner Ernie's Secret Scarborough Escape
TTITLE7=Lost Weekend 
TTITLE8=Firefly
TTITLE9=Blue Butterfly
TTITLE10=Slow Train Home
TTITLE11=Sting in the Tail
TTITLE12=Hymn for Christmas
EXTD=YEAR: 2013
EXTT0=
EXTT1=
EXTT2=
EXTT3=
EXTT4=
EXTT5=
EXTT6=
EXTT7=
EXTT8=
EXTT9=
EXTT10=
EXTT11=
EXTT12=
PLAYORDER=
